<svg xmlns="http://www.w3.org/2000/svg" fill="none" viewBox="0 0 250 250" id="Vignette-Beast-Animal-3--Streamline-Vintage.svg" height="250" width="250"><desc>Vignette Beast Animal 3 Streamline Element: https://streamlinehq.com</desc><path fill="#000000" fill-rule="evenodd" d="M90.5675 151.64999999999998s2.55 0.68 5.779999999999999 2.38c3.23 1.69875 2.04 3.73875 2.04 3.73875s-0.68 -0.8500000000000001 -2.04 0.17c-1.16375 0.90625 -2.03375 -0.15625 -2.9812499999999997 -1.315a14.456249999999999 14.456249999999999 0 0 0 -0.92875 -1.065c-1.53 -1.35875 -5.1 -2.03875 -5.1 -2.03875 -2.485 1.08625 -3.41 3.1674999999999995 -4.2 4.945l-0.21999999999999997 0.49375c-0.68 1.87 -4.25 0.68 -4.25 0.68l-1.02 0.51c0.68 -4.42 7.99 -7.98875 7.99 -7.98875s-5.2700000000000005 -1.87 -6.29 -1.02c-0.8500000000000001 0.8500000000000001 -2.55 0.34 -2.55 0.34l-0.8500000000000001 1.19c-1.53 -2.21 0 -4.42 2.38 -4.25 2.38 0 9.18 0.51 9.18 0.51s9.51875 -3.06 12.07 -8.5c1.2587499999999998 -2.6862500000000002 0.40375 -4.71 -0.62125 -7.13375 -1.05 -2.485 -2.2775 -5.391249999999999 -1.59 -9.866249999999999 1.02125 -5.896249999999999 6.27875 -8.465 11.23 -10.883750000000001 2.47125 -1.2075 4.86625 -2.3775 6.62 -3.90625 5.2700000000000005 -4.58875 0.51 -12.918750000000001 -6.12 -14.10875s-14.61875 3.4000000000000004 -18.700000000000003 10.03c-0.46499999999999997 0.7374999999999999 -0.8899999999999999 1.4249999999999998 -1.28625 2.0675 -3.0675000000000003 4.97 -4.44 7.19375 -10.6125 9.15125 -4.08375 1.295 -6.241250000000001 3.0575 -8.2175 4.67 -1.39625 1.1400000000000001 -2.7024999999999997 2.20625 -4.5325 2.98 -4.42 1.87 -2.21 -0.17 -2.21 -0.17l9.350000000000001 -8.5s-5.2700000000000005 -1.87 -9.69 0.51c-4.42 2.38 -7.65 3.57 -11.388750000000002 3.23 -3.74 -0.34 -2.38 -1.36 -2.38 -1.36l15.97875 -9.51875c0.51 -10.540000000000001 10.37 -13.94 15.98 -14.790000000000001a58.34375 58.34375 0 0 1 3.655 -0.42000000000000004c3.1950000000000003 -0.29374999999999996 5.71875 -0.525 12.325 -3.3200000000000003 8.66875 -3.74 17.67875 -3.91 23.45875 2.38 5.779999999999999 6.29 6.800000000000001 9.86 3.74 19.888749999999998 -3.06 10.03 15.469999999999999 13.43 18.87 9.18 2.4 -3.1574999999999998 -0.27 -6.2225 -3.4037499999999996 -9.82 -1.08375 -1.24375 -2.2225 -2.55125 -3.22625 -3.95 -3.91 -5.43875 6.800000000000001 -11.55875 6.800000000000001 -11.55875 17.16875 -10.88 39.09875 -10.88 52.697500000000005 -6.630000000000001 13.600000000000001 4.25 20.23 11.73 17.34 10.709999999999999 -0.3175 -0.11249999999999999 -0.7424999999999999 -0.275 -1.2650000000000001 -0.47250000000000003 -4.22875 -1.60875 -14.85125 -5.6475 -26.95375 -5.6475 -13.600000000000001 0 -16.830000000000002 3.23 -16.830000000000002 3.23 14.96 -2.8899999999999997 26.858749999999997 5.44 28.89875 9.01 1.0262499999999999 1.70875 -0.6975 1.055 -3.9825 -0.19 -3.25 -1.2325 -8.02875 -3.04375 -13.18625 -3.7199999999999998 -10.2 -1.36 -13.43 2.55 -13.43 2.55s7.65 -0.8500000000000001 14.790000000000001 3.23c7.14 4.078749999999999 8.33 8.15875 4.76 6.800000000000001 -3.57 -1.36125 -11.899999999999999 -3.57 -14.96 -3.06125l-0.5425 0.08875c-2.65625 0.43124999999999997 -3.5025 0.5675 2.2425 2.80125 6.12 2.38 6.800000000000001 7.14 6.29 7.48 -0.265 0.1325 -1.5375 -0.35374999999999995 -3.1925 -0.9875 -2.59125 -0.99375 -6.1225 -2.34625 -8.1975 -2.2425 -3.4000000000000004 0.17 -5.779999999999999 1.02 -2.8899999999999997 2.21 2.8899999999999997 1.19 7.65 3.74 7.31 5.2700000000000005 -0.22749999999999998 1.02375 -4.94375 -0.00625 -8.34625 -0.75 -1.6837499999999999 -0.36874999999999997 -3.0462499999999997 -0.66625 -3.38375 -0.61 -0.60875 0.2025 0.35624999999999996 2.34125 1.23375 4.2875000000000005 0.5925 1.315 1.14625 2.5424999999999995 1.14625 3.0225 0 0.6775 -3.255 -0.13375 -6.3075 -0.895 -2.30625 -0.5750000000000001 -4.49625 -1.12125 -5.0825 -0.9750000000000001 -0.6975 0.2 0.185 1.98 1.0675 3.76125 0.62125 1.25375 1.2425 2.5062499999999996 1.3125 3.20875 0.17 1.7000000000000002 -6.29 -1.87 -7.48 -2.55 -0.7162499999999999 -0.47875 -1.35 1.39625 -1.8399999999999999 2.8475 -0.20625000000000002 0.6125 -0.3875 1.1500000000000001 -0.53875 1.4025 -0.1475 0.43999999999999995 -0.6737500000000001 -0.1325 -1.4149999999999998 -0.93875 -0.97875 -1.06375 -2.33125 -2.535 -3.685 -2.63125 -1.3912499999999999 -0.1 -1.3312499999999998 0.9037499999999999 -1.2775 1.78875 0.0375 0.63 0.07125000000000001 1.2 -0.42250000000000004 1.2712499999999998 -0.46625 0.06625 -1.53 -0.15375 -2.8462500000000004 -0.42500000000000004 -2.0475 -0.42250000000000004 -4.7075 -0.9725 -6.67375 -0.765 -3.4000000000000004 0.34 -2.04 2.38 -2.04 2.38s-4.08 -0.34 -4.25 0.51c-0.17 0.8500000000000001 5.44 4.76 5.44 4.76s-4.93 -0.51 -10.37 -0.51c-5.44 0 -7.48 0 -9.86 1.87 -1.90875 1.5 -5.02125 2.015 -8.5475 2.5987500000000003 -0.8687499999999999 0.14500000000000002 -1.76375 0.29250000000000004 -2.67125 0.46125 -4.59 0.8500000000000001 -5.1 2.8899999999999997 -5.1 2.8899999999999997Zm64.2575 -42.15875s4.25 -0.51125 4.42 -2.55c0.17 -2.04 -6.29 -3.57 -6.29 -3.57s3.4000000000000004 2.55 1.87 6.1187499999999995Zm-1.19 -7.99s3.91 -2.04 4.08 -4.25c0.34 -2.21 -5.1 -1.87 -5.1 -1.87s3.4000000000000004 2.72 1.02 6.12Zm4.93 14.27875c-0.68 -2.21 -4.25 -1.87 -4.25 -1.87 0.8500000000000001 3.74 -2.38 5.61 -2.38 5.61s7.14 -1.53 6.630000000000001 -3.74Zm-4.42 8.16c1.02 -1.36 -2.8899999999999997 -2.72 -2.8899999999999997 -2.72s1.36 2.38 -1.87 4.08c0 0 3.74 0 4.76 -1.36Zm-7.99 3.57s2.86125 4.543749999999999 -4.47625 2.7475c0.53375 0.11374999999999999 2.8337499999999998 0.39 4.47625 -2.7475Zm-11.04875 6.12c1.87 -0.34 2.55 -3.57 2.55 -3.57 -3.91 2.38 -5.949999999999999 0.8500000000000001 -5.949999999999999 0.8500000000000001s1.53 3.06 3.4000000000000004 2.72Zm-6.97 -3.57s-3.91 2.8899999999999997 -4.08 -1.53c0 0 0.68 1.7000000000000002 4.08 1.53ZM75.7775 100.82124999999999c-2.55 0.34 -4.76 3.06 -2.38 5.44 2.38 2.37875 4.25 2.04 4.93 0.34 0.505 -1.1375 -0.77 -1.7100000000000002 -1.87875 -2.2087499999999998 -0.38375 -0.17250000000000001 -0.74875 -0.3375 -1.01125 -0.5125 -1.02 -0.6787500000000001 0.34 -3.05875 0.34 -3.05875Zm34 41.818749999999994s-4.08125 -2.38 -7.821249999999999 -4.59c0 0 -0.8500000000000001 1.53 -0.5087499999999999 2.72 0.5087499999999999 1.19 3.2287500000000002 3.4000000000000004 8.32875 1.87ZM216.0225 110c-6.45875 -2.04 -14.95875 0.51 -17.84875 6.800000000000001 -2.8899999999999997 6.12 -1.36 16.15 -1.36 16.15s-2.38 -0.17 -5.2700000000000005 -2.21c-2.8899999999999997 -2.04 -5.44 -2.38 -8.5 2.72 0 0 6.97 -0.51 9.52 3.91l0.22499999999999998 0.40375c2.3325 4.18125 5.16375 9.25875 14.055 8.43625 9.17875 -1.02 20.568749999999998 -9.86 11.55875 -23.63l-6.288749999999999 2.04s6.1187499999999995 4.25 4.75875 10.709999999999999c-1.36 6.29 -11.04875 11.05 -17.84875 2.72 0 0 2.55 -2.72 5.779999999999999 -2.72 0.37374999999999997 0 0.735 0.005 1.08 0.00875 2.63 0.03375 4.34 0.05499999999999999 4.1899999999999995 -2.04875 -0.17 -2.38 -3.23 -5.949999999999999 -4.76 -5.44 -0.62625 0.1875 -1.4124999999999999 0.79 -2.27625 1.45125 -1.4825 1.13375 -3.19 2.44125 -4.69375 2.11875 -2.21 -0.51 -0.17 -9.52 11.39 -7.65 0 0 1.02 -4.59 12.578750000000001 -6.12 11.39 -1.7000000000000002 16.32 -4.76 17.68 -12.75 1.36 -7.98875 -7.48 -13.25875 -12.58 -10.538749999999999s-3.57 8.84 -0.8500000000000001 10.2c2.72 1.36 6.12 0 5.44 -3.23 0 0 -2.55 2.88875 -5.1 1.36 -2.38 -1.36 -0.68 -6.29 4.42 -5.779999999999999 5.1 0.51 7.99 7.48 4.25 11.728749999999998 -3.91 4.08 -13.09 3.4000000000000004 -19.55 1.36Zm-67.89625 41.974999999999994c0.8250000000000001 0.23375 1.8900000000000001 0.53375 3.2987499999999996 1.205 2.5187500000000003 1.3187499999999999 3.17625 3.23 3.5237499999999997 4.24125 0.09 0.2625 0.16 0.46499999999999997 0.235 0.5800000000000001l-1.0387499999999998 -0.7424999999999999c-1.53 1.53 -4.42 -0.34 -4.76 -1.69875 -0.34 -1.36 -3.06 -1.53 -3.06 -1.53s-4.42 1.53 -4.25 3.56875c0.17 1.87 -1.53 2.8899999999999997 -2.8899999999999997 2.38 -1.53 -0.51 -1.7000000000000002 0.68 -1.7000000000000002 0.68 -1.02 -1.87 0.17 -4.41875 2.21 -5.09875 2.21 -0.68 2.72 -1.53 2.72 -1.53 -4.76 -1.19 -5.44 -0.8500000000000001 -6.12 0.51 -0.5825 1.165 -1.665 1.08125 -2.28375 1.03375a3.9187499999999997 3.9187499999999997 0 0 0 -0.26625 -0.013749999999999998c-0.5087499999999999 0 -0.8487500000000001 0.51 -0.8487500000000001 0.51 0 -4.39375 2.6475 -4.115 4.365 -3.93375l0.22375 0.02375c1.87 0.34 6.12 0.34 6.630000000000001 -0.51 0.51 -1.02 -2.38 -3.91 -2.38 -3.91s-9.17875 -0.34 -11.388750000000002 -3.23c-2.38 -3.06 -4.76 -5.1 -4.76 -5.1l10.19875 -0.68c-0.68 6.630000000000001 10.03 5.2700000000000005 10.03 5.2700000000000005 -3.06 0 -6.46 -2.21 -7.31 -3.57 -0.8450000000000001 -1.3525 -0.1775 -1.1925 4.00625 -0.1875l0.07375 0.0175c3.5749999999999997 0.8575 4.985 -1.2912499999999998 5.64625 -2.29875 0.125 -0.19125 0.22249999999999998 -0.34 0.30374999999999996 -0.42125 0.09125 -0.1375 0.295 0.18125 0.61875 0.69125 0.8775 1.3825 2.645 4.16625 5.50125 3.04875 3.91 -1.53 2.8899999999999997 -6.46 2.72 -7.14 -0.11374999999999999 -0.4575 2.07625 -0.3 4.195 -0.1475 1.03375 0.075 2.05 0.1475 2.7750000000000004 0.1475 1.565 0 1.08375 -2.38625 0.73 -4.1425 -0.14625000000000002 -0.7237499999999999 -0.27 -1.34 -0.21999999999999997 -1.6375000000000002 0 -0.5275 0.8624999999999999 -0.28250000000000003 2.2125 0.10125 1.2625 0.3575 2.9499999999999997 0.83625 4.7575 0.91875 3.74 0.17 2.8899999999999997 -4.42 2.72 -5.1 0 -0.52125 1.70125 -0.3425 3.4925 -0.15375 0.5425 0.056249999999999994 1.0925 0.11499999999999999 1.6075 0.15375 1.6725 0.12875 1.7862500000000001 -1.595 1.8912499999999999 -3.1774999999999998l0 -0.00125c0.03375 -0.5075000000000001 0.06625 -1 0.1475 -1.41125 0.2475 -1.1125 1.12375 -0.96625 2.4962500000000003 -0.73875 0.5175 0.085 1.10375 0.1825 1.7537500000000001 0.22875 2.38 0.17 3.06 -1.19 3.4000000000000004 -2.8899999999999997 0.245 -1.22375 0.49 -1.2137499999999999 1.4324999999999999 -1.1749999999999998 0.3675 0.013749999999999998 0.8387500000000001 0.0325 1.4575 -0.015 2.21 -0.17 1.53 -4.078749999999999 1.36 -4.93 -0.17 -0.8500000000000001 5.949999999999999 1.53125 5.949999999999999 1.53125 -8.5 5.7787500000000005 -5.61 11.899999999999999 -5.61 11.899999999999999s-13.43 4.41875 -27.87875 15.12875c-14.450000000000001 10.709999999999999 -19.55 7.65 -19.55 7.65s-1.87 1.87 -0.8500000000000001 3.91c0.515 1.13125 1.21625 1.3287499999999999 2.48125 1.685Zm7.20875 6.13375 -0.15125 -0.10749999999999998c0.04625 0.07 0.095 0.10749999999999998 0.15125 0.10749999999999998Zm-86.3575 -12.578750000000001c-4.08 1.19 -1.02 7.99 -1.02 7.99l11.05 1.02 -3.4000000000000004 2.88875s-3.06 0.34 -8.16 0.17 -6.97 1.19 -8.33 4.08c-1.02 2.21 -5.2700000000000005 2.38 -7.14 2.38 -0.17 0 -0.34 -0.17 -0.51 -0.34v-0.51c2.8899999999999997 -6.46 8.67 -7.31 8.67 -7.31 -4.53125 -0.54875 -7.3975 -1.8737500000000002 -11.557500000000001 -3.7962499999999997l-0.00125 -0.00125c-0.99 -0.4575 -2.05375 -0.94875 -3.23125 -1.47125 -6.29 -2.55 -11.899999999999999 1.36 -13.600000000000001 4.76 -1.7000000000000002 3.3987499999999997 -3.4000000000000004 5.26875 -9.51875 4.75875 -3.23 -0.34 -6.29 -1.19 -8.33 -1.87a0.935 0.935 0 0 1 -0.51 -0.8500000000000001c0 -0.34 0.34 -0.68 0.68 -0.68 4.76 -0.51 5.61 -1.8687500000000001 7.14 -6.45875 1.87 -5.44 13.600000000000001 -3.06 13.600000000000001 -3.06 -4.76 -3.74 -6.12 -7.14 -6.12 -7.14 -9.86 0.8500000000000001 -10.88 -0.51 -13.260000000000002 -5.2700000000000005 -1.7000000000000002 -3.4000000000000004 -6.29 -5.949999999999999 -8.84 -7.14 -0.17 0 -0.34 -0.34 -0.34 -0.68s0.17 -0.68 0.51 -0.68c5.2700000000000005 -1.36 8.33 1.36 8.33 1.36s-0.51 -2.72 2.55 -6.630000000000001c1.87 -2.38 1.87 -5.2700000000000005 1.53 -6.97 0 -0.34 0 -0.68 0.34 -0.8500000000000001s0.68 -0.17 0.8500000000000001 0c5.1 3.91 4.93 10.03 4.93 10.03 1.7000000000000002 -2.72 6.288749999999999 -5.1 9.350000000000001 -6.46 0.33875 -0.17 0.6787500000000001 -0.17 0.8500000000000001 0.17 0.16875 0.17 0.16875 0.51 0 0.8500000000000001 -2.55 3.4000000000000004 -3.06125 7.99 -2.04125 12.24 1.02 5.2700000000000005 -2.88875 8.84 -2.88875 8.84 3.73875 6.29 9.68875 6.800000000000001 9.68875 6.800000000000001s-3.57 -6.800000000000001 1.36 -11.05c4.93 -4.08 6.46 -4.76 10.37 -4.25 0.8799999999999999 0.14625000000000002 1.72125 0.34125000000000005 2.50875 0.5225 2.8625 0.66125 5.02125 1.1600000000000001 5.82125 -1.3725 0.34 -1.19 1.19 -1.87 1.87 -2.21 0.17 -0.17 0.68 -0.17 0.8500000000000001 0.17 0.17 0.17 0.17 0.51 0 0.8500000000000001 -0.8724999999999999 1.2687499999999998 -1.3375000000000001 2.8337499999999998 -1.845 4.54 -0.5800000000000001 1.9500000000000002 -1.2149999999999999 4.08375 -2.575 6.17 -1.8662500000000002 3.0062499999999996 -4.93375 2.535 -8.04625 2.0575 -1.99125 -0.30625 -4 -0.615 -5.72375 -0.0175 -4.42 1.53 -2.55 4.76 -2.55 4.76 8.33 6.97 23.119999999999997 7.99 23.119999999999997 7.99 -4.76 -12.58 0.17 -17 5.61 -19.89 2.55 -1.36 3.23 -3.4000000000000004 3.4000000000000004 -5.1 0 -0.34 0.17 -0.68 0.51 -0.68 0.34 -0.17 0.68 0 0.8500000000000001 0.34 6.1187499999999995 11.22 -3.23 15.809999999999999 -6.800000000000001 17Zm75.47625 12.40875 -0.34 0.8500000000000001 5.44 -0.51 -0.8500000000000001 -0.51 -4.25 0.17Zm-22.77875 -1.87c4.25 0.51 9.52 -0.17 9.52 -0.17s2.04 0.8500000000000001 2.8899999999999997 3.91c0 0 -14.450000000000001 2.55 -34.67875 -0.68l2.04 -3.23s6.97 0.8500000000000001 14.95875 0.68c0 0 -5.608750000000001 -3.91 -7.48 -6.96875l1.02 -0.51s7.48 6.45875 11.73 6.96875Zm-34.3375 -0.6787500000000001 -1.36 3.05875h4.59l-2.04 -3.05875h-1.19Zm151.5625 -6.135000000000001c0.47625 0.1325 0.9025 0.25125000000000003 1.2625 0.355 2.55 0.68 3.74 2.38 3.57 3.06 -0.17 0.51 -7.308750000000001 -1.87 -14.10875 -4.76 -6.2575 -2.66 -8.6275 -1.4324999999999999 -14.924999999999999 1.8262500000000002 -0.5475 0.28250000000000003 -1.12375 0.58125 -1.7349999999999999 0.8937499999999999 -7.48 3.73875 -13.09 3.4000000000000004 -21.92875 2.38 -1.68875 -0.19125 -3.06 -0.37124999999999997 -4.22 -0.5225 -5.034999999999999 -0.6575 -6.0962499999999995 -0.79625 -11.76 0.8624999999999999 -6.800000000000001 2.03875 -15.98 3.73875 -15.98 3.73875 -0.17 -3.23 -5.1 -4.75875 -5.1 -4.75875s3.23 0 9.01 -2.21c5.779999999999999 -2.21 12.75 -4.76 13.77 -4.76 0.8500000000000001 0 0.17 -4.25 0.17 -4.25 15.129999999999999 11.559999999999999 30.938750000000002 9.52 37.738749999999996 6.12 6.800000000000001 -3.4000000000000004 10.88 -2.72 14.450000000000001 -1.19 2.885 1.2975 7.116249999999999 2.47375 9.786249999999999 3.215Z" clip-rule="evenodd" stroke-width="1"></path></svg>